<svg xmlns="http://www.w3.org/2000/svg" width="27" height="26" viewBox="0 0 27 26">
  <g id="ic_address" transform="translate(-892 -1468)">
    <circle id="Ellipse_3" data-name="Ellipse 3" cx="10" cy="10" r="10" transform="translate(899 1474)" fill="#f8b000"/>
    <g id="Group_28" data-name="Group 28" transform="translate(892 1468)">
      <path id="Path_27" data-name="Path 27" d="M0,0H26V26H0Z" fill="none"/>
      <path id="Path_28" data-name="Path 28" d="M13,25.728l-7.071-6.95a9.71,9.71,0,0,1,0-13.9,10.124,10.124,0,0,1,14.142,0,9.71,9.71,0,0,1,0,13.9Zm5.5-8.494a7.552,7.552,0,0,0,0-10.811,7.874,7.874,0,0,0-11,0,7.552,7.552,0,0,0,0,10.811L13,22.64l5.5-5.406ZM13,14.013a2.184,2.184,0,1,1,2.222-2.184A2.2,2.2,0,0,1,13,14.013Z" transform="translate(0 0)" fill="#44210e"/>
    </g>
  </g>
</svg>
